<?xml version="1.0" standalone="no"?>
<!DOCTYPE svg PUBLIC "-//W3C//DTD SVG 20010904//EN"
 "http://www.w3.org/TR/2001/REC-SVG-20010904/DTD/svg10.dtd">
<svg version="1.0" xmlns="http://www.w3.org/2000/svg"
 width="400.000000pt" height="400.000000pt" viewBox="0 0 400.000000 400.000000"
 preserveAspectRatio="xMidYMid meet">
<metadata>
Created by potrace 1.14, written by Peter Selinger 2001-2017
</metadata>
<g transform="translate(0.000000,400.000000) scale(0.100000,-0.100000)"
fill="#000000" stroke="none">
<path d="M1865 3824 c4 -27 10 -56 15 -64 4 -8 10 -27 14 -42 6 -28 6 -28 -46
-28 -30 0 -98 -14 -158 -32 -92 -27 -121 -31 -227 -32 -113 -1 -124 1 -154 23
l-32 24 7 -24 c4 -13 11 -38 15 -54 4 -17 13 -40 19 -52 17 -32 16 -33 -36
-33 -27 0 -74 -9 -105 -19 -163 -56 -339 -66 -399 -21 l-30 22 4 -48 c6 -56
22 -104 66 -196 2 -5 -2 -8 -8 -8 -6 0 -47 -32 -90 -71 -115 -105 -136 -117
-210 -126 l-65 -8 38 -23 c21 -12 48 -22 60 -22 16 0 18 -3 9 -9 -7 -4 -37 -4
-65 2 -67 12 -195 4 -227 -14 -44 -25 -71 -53 -86 -88 -18 -43 -12 -49 22 -22
35 28 53 27 28 -1 -18 -20 -44 -70 -44 -84 0 -3 17 7 37 21 44 29 83 32 106 7
9 -10 33 -49 52 -87 20 -39 51 -85 68 -102 27 -29 28 -33 11 -33 -39 1 -98 19
-126 40 -26 19 -28 19 -28 3 0 -22 25 -101 54 -168 38 -90 159 -195 224 -195
17 0 14 -12 -29 -99 -49 -99 -49 -101 -49 -198 0 -101 18 -190 61 -298 72
-180 190 -385 221 -385 4 0 8 19 9 43 1 40 2 39 15 -23 34 -153 119 -346 199
-450 49 -63 190 -200 206 -200 7 0 9 10 5 25 -5 20 -3 25 12 25 12 0 26 -19
45 -64 63 -145 228 -255 562 -378 161 -60 427 -128 555 -143 l55 -6 -34 28
c-19 15 -42 33 -50 40 -14 11 -12 12 12 13 26 0 18 9 -75 88 -143 123 -262
272 -298 375 -52 148 -66 446 -25 517 32 53 115 116 180 135 32 9 58 15 59 13
10 -13 31 -80 55 -176 23 -87 27 -120 20 -145 -14 -49 -11 -149 6 -181 8 -15
15 -35 15 -42 0 -19 19 -53 50 -87 44 -51 85 -61 311 -83 52 -5 58 -4 78 22
11 14 21 40 21 57 0 29 0 30 20 12 11 -10 20 -23 20 -30 0 -13 36 -48 65 -63
11 -5 68 -13 126 -17 l106 -7 34 29 c19 16 50 35 69 43 46 17 97 65 122 115
11 21 31 47 44 57 33 26 44 77 44 198 0 74 -5 114 -15 134 -8 15 -15 38 -15
50 0 12 -16 41 -35 64 -20 22 -42 60 -50 84 -13 40 -30 87 -83 224 -10 28 -43
101 -72 162 -51 108 -52 112 -36 136 20 31 20 98 1 191 -8 38 -15 70 -15 71 0
1 25 4 55 7 79 8 227 83 301 153 53 50 56 55 30 49 -97 -21 -93 -23 -45 23 46
42 49 59 8 44 -13 -5 -53 -13 -89 -17 l-65 -7 41 44 c72 75 89 118 89 230 0
64 -4 101 -12 110 -7 6 -13 25 -13 40 0 35 -5 35 -36 -2 -43 -50 -82 -74 -99
-60 -8 7 -15 23 -15 37 0 13 -6 36 -14 51 -7 15 -16 45 -20 67 l-6 40 201 175
c262 228 381 351 414 425 14 32 22 61 19 66 -19 31 -131 -21 -323 -150 -47
-31 -108 -72 -138 -91 -29 -19 -112 -75 -185 -125 -73 -49 -135 -91 -138 -93
-3 -1 -22 26 -43 61 -34 58 -37 71 -37 137 0 63 -2 71 -15 60 -13 -11 -15 -7
-15 30 0 42 0 43 -20 25 -32 -29 -70 -123 -70 -174 l-1 -46 -89 93 -90 93 0
77 c0 68 4 98 25 190 5 21 3 22 -15 12 -23 -12 -24 -8 -11 38 7 24 7 32 -4 32
-21 0 -128 -122 -157 -181 -15 -30 -28 -49 -28 -42 0 23 -63 84 -112 109 -29
15 -117 39 -213 59 -181 37 -208 48 -267 107 l-41 41 8 -49z m-987 -880 c32
-9 27 -20 -14 -36 -32 -13 -43 -13 -91 1 l-56 15 34 12 c38 14 92 17 127 8z"/>
</g>
</svg>
